<?xml version="1.0" encoding="UTF-8" standalone="no"?>
<svg
   xmlns:dc="http://purl.org/dc/elements/1.1/"
   xmlns:cc="http://creativecommons.org/ns#"
   xmlns:rdf="http://www.w3.org/1999/02/22-rdf-syntax-ns#"
   xmlns:svg="http://www.w3.org/2000/svg"
   xmlns="http://www.w3.org/2000/svg"
   height="341.33401"
   width="490.66766"
   version="1.1"
   id="Layer_1"
   x="0px"
   y="0px"
   viewBox="0 0 490.66766 341.33401"
   xml:space="preserve"><metadata
   id="metadata43"><rdf:RDF><cc:Work
       rdf:about=""><dc:format>image/svg+xml</dc:format><dc:type
         rdf:resource="http://purl.org/dc/dcmitype/StillImage" /><dc:title></dc:title></cc:Work></rdf:RDF></metadata><defs
   id="defs41" />
<g
   transform="translate(-21.333,-79.99798)"
   id="g6"
   style="fill:#25366d;fill-opacity:1">
	<g
   id="g4"
   style="fill:#25366d;fill-opacity:1">
		<path
   d="m 508.359,402.64 -85.333,-74.667 c -4.228,-3.699 -10.596,-3.487 -14.568,0.484 l -51.473,51.473 -34.997,-113.741 29.128,-22.655 46.674,46.676 c 2.484,2.483 6.029,3.585 9.491,2.944 3.454,-0.641 6.372,-2.944 7.799,-6.155 l 85.333,-192 c 2.392,-5.383 -0.033,-11.686 -5.415,-14.079 -5.387,-2.393 -11.688,0.033 -14.079,5.415 l -79.026,177.807 -42.35,-42.351 c -3.803,-3.802 -9.848,-4.178 -14.091,-0.876 L 315.278,244.384 276.862,119.53 c -1.266,-4.111 -4.875,-7.06 -9.155,-7.479 -4.279,-0.413 -8.393,1.772 -10.432,5.559 l -54.021,100.325 -45.466,-59.106 c -1.952,-2.538 -4.941,-4.065 -8.143,-4.159 -3.234,-0.061 -6.275,1.258 -8.372,3.677 L 21.333,296.739 v 113.927 h 96 c 3.925,0 7.531,-2.155 9.392,-5.609 l 79.699,-148.012 41.122,53.458 c 1.73,2.25 4.288,3.717 7.103,4.077 2.813,0.362 5.66,-0.418 7.9,-2.161 l 41.429,-32.223 37.828,122.94 c 1.1,3.575 3.994,6.314 7.624,7.215 3.631,0.904 7.469,-0.163 10.115,-2.809 l 56.943,-56.944 77.823,68.095 c 2.025,1.771 4.527,2.639 7.021,2.639 2.969,0 5.923,-1.233 8.031,-3.642 3.877,-4.432 3.428,-11.171 -1.004,-15.05 z M 110.962,389.334 H 21.333 v -60.021 l 127.508,-147.125 43.33,56.329 z m 146.955,-100.338 -40.41,-52.533 46.464,-86.29 33.298,108.217 z"
   id="path2"
   style="fill:#25366d;fill-opacity:1" />
	</g>
</g>
<g
   transform="translate(-21.333,-79.99798)"
   id="g8"
   style="fill:#25366d;fill-opacity:1">
</g>
<g
   transform="translate(-21.333,-79.99798)"
   id="g10"
   style="fill:#25366d;fill-opacity:1">
</g>
<g
   transform="translate(-21.333,-79.99798)"
   id="g12"
   style="fill:#25366d;fill-opacity:1">
</g>
<g
   transform="translate(-21.333,-79.99798)"
   id="g14"
   style="fill:#25366d;fill-opacity:1">
</g>
<g
   transform="translate(-21.333,-79.99798)"
   id="g16"
   style="fill:#25366d;fill-opacity:1">
</g>
<g
   transform="translate(-21.333,-79.99798)"
   id="g18"
   style="fill:#25366d;fill-opacity:1">
</g>
<g
   transform="translate(-21.333,-79.99798)"
   id="g20"
   style="fill:#25366d;fill-opacity:1">
</g>
<g
   transform="translate(-21.333,-79.99798)"
   id="g22"
   style="fill:#25366d;fill-opacity:1">
</g>
<g
   transform="translate(-21.333,-79.99798)"
   id="g24"
   style="fill:#25366d;fill-opacity:1">
</g>
<g
   transform="translate(-21.333,-79.99798)"
   id="g26"
   style="fill:#25366d;fill-opacity:1">
</g>
<g
   transform="translate(-21.333,-79.99798)"
   id="g28"
   style="fill:#25366d;fill-opacity:1">
</g>
<g
   transform="translate(-21.333,-79.99798)"
   id="g30"
   style="fill:#25366d;fill-opacity:1">
</g>
<g
   transform="translate(-21.333,-79.99798)"
   id="g32"
   style="fill:#25366d;fill-opacity:1">
</g>
<g
   transform="translate(-21.333,-79.99798)"
   id="g34"
   style="fill:#25366d;fill-opacity:1">
</g>
<g
   transform="translate(-21.333,-79.99798)"
   id="g36"
   style="fill:#25366d;fill-opacity:1">
</g>
</svg>