<?xml version="1.0" encoding="UTF-8" standalone="no"?>
<svg
   xmlns:dc="http://purl.org/dc/elements/1.1/"
   xmlns:cc="http://creativecommons.org/ns#"
   xmlns:rdf="http://www.w3.org/1999/02/22-rdf-syntax-ns#"
   xmlns:svg="http://www.w3.org/2000/svg"
   xmlns="http://www.w3.org/2000/svg"
   xml:space="preserve"
   style="enable-background:new 0 0 496.8 496.8;"
   viewBox="0 0 496.8 496.8"
   y="0px"
   x="0px"
   id="Layer_1"
   version="1.1"><metadata
   id="metadata85"><rdf:RDF><cc:Work
       rdf:about=""><dc:format>image/svg+xml</dc:format><dc:type
         rdf:resource="http://purl.org/dc/dcmitype/StillImage" /><dc:title></dc:title></cc:Work></rdf:RDF></metadata><defs
   id="defs83" />
<g
   style="fill:#25366d;fill-opacity:1"
   id="g6">
	<g
   style="fill:#25366d;fill-opacity:1"
   id="g4">
		<path
   style="fill:#25366d;fill-opacity:1"
   id="path2"
   d="M118,377.8l-64-64c-6.4-6.4-16-6.4-22.4,0c-6.4,6.4-6.4,16,0,22.4l64,64c3.2,3.2,6.4,4.8,11.2,4.8s8-1.6,11.2-4.8    C124.4,393.8,124.4,384.2,118,377.8z" />
	</g>
</g>
<g
   style="fill:#25366d;fill-opacity:1"
   id="g12">
	<g
   style="fill:#25366d;fill-opacity:1"
   id="g10">
		<path
   style="fill:#25366d;fill-opacity:1"
   id="path8"
   d="M486,107.4l-96-96C375.6-3,350-3,335.6,11.4L10.8,334.6c-14.4,16-14.4,40,0,54.4l96,96c8,8,17.6,11.2,27.2,11.2    c9.6,0,19.2-3.2,25.6-11.2L486,161.8C500.4,145.8,500.4,121.8,486,107.4z M462,137.8L137.2,462.6c-3.2,3.2-4.8,3.2-8,0l-96-96    c-1.6-1.6-1.6-6.4,0-8L356.4,33.8c1.6-1.6,3.2-1.6,4.8-1.6c1.6,0,3.2,0,4.8,1.6l96,96C463.6,131.4,463.6,136.2,462,137.8z" />
	</g>
</g>
<g
   style="fill:#25366d;fill-opacity:1"
   id="g18">
	<g
   style="fill:#25366d;fill-opacity:1"
   id="g16">
		<path
   style="fill:#25366d;fill-opacity:1"
   id="path14"
   d="M258.8,237l-64-64c-6.4-6.4-16-6.4-22.4,0c-6.4,6.4-6.4,16,0,22.4l64,64c3.2,3.2,6.4,4.8,11.2,4.8s8-1.6,11.2-4.8    C265.2,253,265.2,243.4,258.8,237z" />
	</g>
</g>
<g
   style="fill:#25366d;fill-opacity:1"
   id="g24">
	<g
   style="fill:#25366d;fill-opacity:1"
   id="g22">
		<path
   style="fill:#25366d;fill-opacity:1"
   id="path20"
   d="M186.8,259.4l-40-38.4c-6.4-6.4-16-6.4-22.4,0c-6.4,6.4-6.4,16,0,22.4l40,38.4c3.2,3.2,6.4,4.8,11.2,4.8s9.6-1.6,11.2-4.8    C193.2,275.4,193.2,265.8,186.8,259.4z" />
	</g>
</g>
<g
   style="fill:#25366d;fill-opacity:1"
   id="g30">
	<g
   style="fill:#25366d;fill-opacity:1"
   id="g28">
		<path
   style="fill:#25366d;fill-opacity:1"
   id="path26"
   d="M140.4,305.8L102,267.4c-6.4-6.4-16-6.4-22.4,0c-6.4,6.4-6.4,16,0,22.4l38.4,38.4c3.2,3.2,6.4,4.8,11.2,4.8    c4.8,0,8-1.6,11.2-4.8C146.8,321.8,146.8,312.2,140.4,305.8z" />
	</g>
</g>
<g
   style="fill:#25366d;fill-opacity:1"
   id="g36">
	<g
   style="fill:#25366d;fill-opacity:1"
   id="g34">
		<path
   style="fill:#25366d;fill-opacity:1"
   id="path32"
   d="M327.6,118.6l-38.4-38.4c-6.4-6.4-16-6.4-22.4,0c-6.4,6.4-6.4,16,0,22.4l38.4,38.4c3.2,3.2,6.4,4.8,11.2,4.8    c4.8,0,9.6-1.6,11.2-4.8C334,134.6,334,125,327.6,118.6z" />
	</g>
</g>
<g
   style="fill:#25366d;fill-opacity:1"
   id="g42">
	<g
   style="fill:#25366d;fill-opacity:1"
   id="g40">
		<path
   style="fill:#25366d;fill-opacity:1"
   id="path38"
   d="M281.2,165l-38.4-38.4c-6.4-6.4-16-6.4-22.4,0c-6.4,6.4-6.4,16,0,22.4l38.4,38.4c3.2,3.2,6.4,4.8,11.2,4.8s8-1.6,11.2-4.8    C287.6,181,287.6,171.4,281.2,165z" />
	</g>
</g>
<g
   style="fill:#25366d;fill-opacity:1"
   id="g48">
	<g
   style="fill:#25366d;fill-opacity:1"
   id="g46">
		<path
   style="fill:#25366d;fill-opacity:1"
   id="path44"
   d="M399.6,96.2l-64-64c-6.4-6.4-16-6.4-22.4,0c-6.4,6.4-6.4,16,0,22.4l64,64c3.2,3.2,6.4,4.8,11.2,4.8c4.8,0,8-1.6,11.2-4.8    C406,112.2,406,102.6,399.6,96.2z" />
	</g>
</g>
<g
   style="fill:#25366d;fill-opacity:1"
   id="g50">
</g>
<g
   style="fill:#25366d;fill-opacity:1"
   id="g52">
</g>
<g
   style="fill:#25366d;fill-opacity:1"
   id="g54">
</g>
<g
   style="fill:#25366d;fill-opacity:1"
   id="g56">
</g>
<g
   style="fill:#25366d;fill-opacity:1"
   id="g58">
</g>
<g
   style="fill:#25366d;fill-opacity:1"
   id="g60">
</g>
<g
   style="fill:#25366d;fill-opacity:1"
   id="g62">
</g>
<g
   style="fill:#25366d;fill-opacity:1"
   id="g64">
</g>
<g
   style="fill:#25366d;fill-opacity:1"
   id="g66">
</g>
<g
   style="fill:#25366d;fill-opacity:1"
   id="g68">
</g>
<g
   style="fill:#25366d;fill-opacity:1"
   id="g70">
</g>
<g
   style="fill:#25366d;fill-opacity:1"
   id="g72">
</g>
<g
   style="fill:#25366d;fill-opacity:1"
   id="g74">
</g>
<g
   style="fill:#25366d;fill-opacity:1"
   id="g76">
</g>
<g
   style="fill:#25366d;fill-opacity:1"
   id="g78">
</g>
</svg>