<?xml version="1.0" encoding="UTF-8" standalone="no"?>
<svg
   xmlns:dc="http://purl.org/dc/elements/1.1/"
   xmlns:cc="http://creativecommons.org/ns#"
   xmlns:rdf="http://www.w3.org/1999/02/22-rdf-syntax-ns#"
   xmlns:svg="http://www.w3.org/2000/svg"
   xmlns="http://www.w3.org/2000/svg"
   xml:space="preserve"
   style="enable-background:new 0 0 219.786 219.786;"
   viewBox="0 0 219.786 219.786"
   y="0px"
   x="0px"
   id="Capa_1"
   version="1.1"><metadata
   id="metadata57"><rdf:RDF><cc:Work
       rdf:about=""><dc:format>image/svg+xml</dc:format><dc:type
         rdf:resource="http://purl.org/dc/dcmitype/StillImage" /><dc:title></dc:title></cc:Work></rdf:RDF></metadata><defs
   id="defs55" />
<g
   style="fill:#25366d;fill-opacity:1"
   id="g20">
	<path
   style="fill:#25366d;fill-opacity:1"
   id="path2"
   d="M109.881,183.46c-4.142,0-7.5,3.358-7.5,7.5v21.324c0,4.142,3.358,7.5,7.5,7.5c4.143,0,7.5-3.358,7.5-7.5V190.96   C117.381,186.817,114.023,183.46,109.881,183.46z" />
	<path
   style="fill:#25366d;fill-opacity:1"
   id="path4"
   d="M109.881,36.329c4.143,0,7.5-3.358,7.5-7.5V7.503c0-4.142-3.357-7.5-7.5-7.5c-4.142,0-7.5,3.358-7.5,7.5v21.326   C102.381,32.971,105.739,36.329,109.881,36.329z" />
	<path
   style="fill:#25366d;fill-opacity:1"
   id="path6"
   d="M47.269,161.909l-15.084,15.076c-2.93,2.928-2.931,7.677-0.003,10.606c1.465,1.465,3.385,2.198,5.305,2.198   c1.919,0,3.837-0.732,5.302-2.195l15.084-15.076c2.93-2.928,2.931-7.677,0.003-10.606   C54.946,158.982,50.198,158.982,47.269,161.909z" />
	<path
   style="fill:#25366d;fill-opacity:1"
   id="path8"
   d="M167.208,60.067c1.919,0,3.838-0.732,5.303-2.196l15.082-15.076c2.929-2.929,2.93-7.677,0.002-10.607   c-2.929-2.93-7.677-2.931-10.607-0.001l-15.082,15.076c-2.929,2.928-2.93,7.677-0.002,10.606   C163.368,59.335,165.288,60.067,167.208,60.067z" />
	<path
   style="fill:#25366d;fill-opacity:1"
   id="path10"
   d="M36.324,109.895c0-4.142-3.358-7.5-7.5-7.5H7.5c-4.142,0-7.5,3.358-7.5,7.5c0,4.142,3.358,7.5,7.5,7.5h21.324   C32.966,117.395,36.324,114.037,36.324,109.895z" />
	<path
   style="fill:#25366d;fill-opacity:1"
   id="path12"
   d="M212.286,102.395h-21.334c-4.143,0-7.5,3.358-7.5,7.5c0,4.142,3.357,7.5,7.5,7.5h21.334c4.143,0,7.5-3.358,7.5-7.5   C219.786,105.754,216.429,102.395,212.286,102.395z" />
	<path
   style="fill:#25366d;fill-opacity:1"
   id="path14"
   d="M47.267,57.871c1.464,1.464,3.384,2.196,5.303,2.196c1.919,0,3.839-0.732,5.303-2.196c2.929-2.929,2.929-7.678,0-10.607   L42.797,32.188c-2.929-2.929-7.678-2.929-10.606,0c-2.929,2.929-2.929,7.678,0,10.606L47.267,57.871z" />
	<path
   style="fill:#25366d;fill-opacity:1"
   id="path16"
   d="M172.52,161.911c-2.929-2.929-7.678-2.93-10.607-0.001c-2.93,2.929-2.93,7.678-0.001,10.606l15.074,15.076   c1.465,1.465,3.384,2.197,5.304,2.197c1.919,0,3.839-0.732,5.303-2.196c2.93-2.929,2.93-7.678,0.001-10.606L172.52,161.911z" />
	<path
   style="fill:#25366d;fill-opacity:1"
   id="path18"
   d="M109.889,51.518c-32.187,0-58.373,26.188-58.373,58.377c0,32.188,26.186,58.375,58.373,58.375   c32.19,0,58.378-26.187,58.378-58.375C168.267,77.706,142.078,51.518,109.889,51.518z M109.889,153.27   c-23.916,0-43.373-19.458-43.373-43.375c0-23.918,19.457-43.377,43.373-43.377c23.919,0,43.378,19.459,43.378,43.377   C153.267,133.812,133.808,153.27,109.889,153.27z" />
</g>
<g
   style="fill:#25366d;fill-opacity:1"
   id="g22">
</g>
<g
   style="fill:#25366d;fill-opacity:1"
   id="g24">
</g>
<g
   style="fill:#25366d;fill-opacity:1"
   id="g26">
</g>
<g
   style="fill:#25366d;fill-opacity:1"
   id="g28">
</g>
<g
   style="fill:#25366d;fill-opacity:1"
   id="g30">
</g>
<g
   style="fill:#25366d;fill-opacity:1"
   id="g32">
</g>
<g
   style="fill:#25366d;fill-opacity:1"
   id="g34">
</g>
<g
   style="fill:#25366d;fill-opacity:1"
   id="g36">
</g>
<g
   style="fill:#25366d;fill-opacity:1"
   id="g38">
</g>
<g
   style="fill:#25366d;fill-opacity:1"
   id="g40">
</g>
<g
   style="fill:#25366d;fill-opacity:1"
   id="g42">
</g>
<g
   style="fill:#25366d;fill-opacity:1"
   id="g44">
</g>
<g
   style="fill:#25366d;fill-opacity:1"
   id="g46">
</g>
<g
   style="fill:#25366d;fill-opacity:1"
   id="g48">
</g>
<g
   style="fill:#25366d;fill-opacity:1"
   id="g50">
</g>
</svg>