<?xml version="1.0" encoding="UTF-8" standalone="no"?>
<svg
   xmlns:dc="http://purl.org/dc/elements/1.1/"
   xmlns:cc="http://creativecommons.org/ns#"
   xmlns:rdf="http://www.w3.org/1999/02/22-rdf-syntax-ns#"
   xmlns:svg="http://www.w3.org/2000/svg"
   xmlns="http://www.w3.org/2000/svg"
   version="1.1"
   width="512"
   viewBox="0 0 512 512"
   height="512"
   enable-background="new 0 0 512 512"
   id="Capa_1">
  <metadata
     id="metadata25">
    <rdf:RDF>
      <cc:Work
         rdf:about="">
        <dc:format>image/svg+xml</dc:format>
        <dc:type
           rdf:resource="http://purl.org/dc/dcmitype/StillImage" />
        <dc:title></dc:title>
      </cc:Work>
    </rdf:RDF>
  </metadata>
  <defs
     id="defs23" />
  <g
     style="fill:#25366d;fill-opacity:1"
     id="g18">
    <g
       style="fill:#25366d;fill-opacity:1"
       id="g14">
      <path
         style="fill:#25366d;fill-opacity:1"
         id="path2"
         d="m256 98.294c8.284 0 15-6.716 15-15v-68.294c0-8.284-6.716-15-15-15s-15 6.716-15 15v68.294c0 8.284 6.716 15 15 15z" />
      <path
         style="fill:#25366d;fill-opacity:1"
         id="path4"
         d="m497 241h-68.294c-8.284 0-15 6.716-15 15s6.716 15 15 15h68.294c8.284 0 15-6.716 15-15s-6.716-15-15-15z" />
      <path
         style="fill:#25366d;fill-opacity:1"
         id="path6"
         d="m98.294 256c0-8.284-6.716-15-15-15h-68.294c-8.284 0-15 6.716-15 15s6.716 15 15 15h68.294c8.284 0 15-6.716 15-15z" />
      <path
         style="fill:#25366d;fill-opacity:1"
         id="path8"
         d="m395.924 131.91c3.838 0 7.678-1.465 10.606-4.394l36.853-36.852c5.858-5.857 5.858-15.355 0-21.213-5.856-5.858-15.354-5.858-21.213 0l-36.853 36.852c-5.858 5.857-5.858 15.355 0 21.213 2.929 2.929 6.768 4.394 10.607 4.394z" />
      <path
         style="fill:#25366d;fill-opacity:1"
         id="path10"
         d="m105.469 127.516c2.929 2.929 6.768 4.394 10.606 4.394s7.678-1.464 10.606-4.394c5.858-5.858 5.858-15.355 0-21.213l-36.852-36.852c-5.857-5.858-15.355-5.858-21.213 0s-5.858 15.355 0 21.213z" />
      <path
         style="fill:#25366d;fill-opacity:1"
         id="path12"
         d="m441.134 306.049h-65.698c6.608-15.765 10.063-32.755 10.063-50.049 0-71.406-58.093-129.5-129.499-129.5s-129.5 58.094-129.5 129.5c0 17.259 3.447 34.279 10.052 50.049h-65.686c-8.284 0-15 6.716-15 15s6.716 15 15 15h370.268c8.284 0 15-6.716 15-15s-6.716-15-15-15zm-284.634-50.049c0-54.864 44.636-99.5 99.5-99.5s99.499 44.635 99.499 99.5c0 17.658-4.667 34.9-13.504 50.049h-171.994c-8.829-15.132-13.501-32.423-13.501-50.049z" />
    </g>
    <path
       style="fill:#25366d;fill-opacity:1"
       id="path16"
       d="m350.229 364.614h-188.459c-8.284 0-15 6.716-15 15s6.716 15 15 15h188.46c8.284 0 15-6.716 15-15s-6.716-15-15.001-15z" />
  </g>
</svg>
