<?xml version="1.0" encoding="UTF-8" standalone="no"?>
<!-- Created with Inkscape (http://www.inkscape.org/) -->

<svg
   xmlns:dc="http://purl.org/dc/elements/1.1/"
   xmlns:cc="http://creativecommons.org/ns#"
   xmlns:rdf="http://www.w3.org/1999/02/22-rdf-syntax-ns#"
   xmlns:svg="http://www.w3.org/2000/svg"
   xmlns="http://www.w3.org/2000/svg"
   version="1.1"
   width="100%"
   height="100%"
   viewBox="0 0 532 385.15012"
   id="Capa_1"
   xml:space="preserve"><metadata
     id="metadata11"><rdf:RDF><cc:Work
         rdf:about=""><dc:format>image/svg+xml</dc:format><dc:type
           rdf:resource="http://purl.org/dc/dcmitype/StillImage" /><dc:title></dc:title></cc:Work></rdf:RDF></metadata><defs
     id="defs9" /><style
     type="text/css"
     id="style3" /><path
     d="m 321,54.68125 c -10.4,-10.4 -10.4,-26.8 0,-37.2 10.4,-10.1 26.8,-10.1 37.2,0 l 156,156 c 4.8,4.8 7.8,11.5 7.8,19 0,7.5 -3,14.1 -7.8,19 l -156,156 c -10.4,10.4 -26.8,10.4 -37.2,0 -10.4,-10.4 -10.4,-26.8 0,-37.2 l 111.7,-111.4 -396.6,0 c -14.5,0 -26.1,-11.9 -26.1,-26.4 0,-14.5 11.5,-26.1 26.1,-26.1 l 396.6,0 -111.7,-111.7 z"
     id="path5"
     style="fill:#5162a8;fill-opacity:1;stroke:#5162a8;stroke-width:20;stroke-miterlimit:4;stroke-opacity:1;stroke-dasharray:none" /></svg>