<svg xmlns="http://www.w3.org/2000/svg" xmlns:xlink="http://www.w3.org/1999/xlink" style="enable-background:new 0 0 17.707 21.124" xml:space="preserve" height="21" viewBox="0 0 17.707 21.124" width="18" version="1.1" y="228" x="0px"><path fill="#ffffff" d="m17.525 11.002l-3.289 3.288c-0.122 0.121-0.281 0.182-0.44 0.182s-0.318-0.061-0.44-0.182c-0.243-0.243-0.243-0.637 0-0.88l2.228-2.229h-8.873c-0.343 0-0.622-0.276-0.622-0.619s0.278-0.619 0.622-0.619h8.836l-2.195-2.232c-0.24-0.244-0.238-0.637 0.005-0.878s0.635-0.24 0.878 0.002l3.289 3.288c0.117 0.116 0.182 0.275 0.182 0.439 0.001 0.165-0.064 0.323-0.181 0.44zm-4.815-6.123c-0.343 0-0.619-0.278-0.619-0.622v-3.02h-10.853v18.648h10.853v-3.018c0-0.343 0.276-0.622 0.619-0.622s0.619 0.278 0.619 0.622v3.64c0 0.343-0.283 0.616-0.626 0.616h-12.082c-0.343 0.001-0.621-0.271-0.621-0.615v-19.891c0-0.343 0.278-0.617 0.621-0.617h12.083c0.343 0 0.626 0.274 0.626 0.617v3.64c0 0.344-0.276 0.622-0.62 0.622z"/></svg>
