<?xml version="1.0" encoding="utf-8"?>
<!-- Generator: Adobe Illustrator 17.0.0, SVG Export Plug-In . SVG Version: 6.00 Build 0)  -->
<svg version="1.1" id="Слой_1" xmlns="http://www.w3.org/2000/svg" xmlns:xlink="http://www.w3.org/1999/xlink" x="0px" y="0px"
	 width="22.97px" height="22.97px" viewBox="0 0 22.97 22.97" style="enable-background:new 0 0 22.97 22.97;" xml:space="preserve" fill="#0e334f"
	>
<path d="M21.097,10.919l-6.784,6.784c-1.404,1.403-3.687,1.403-5.09,0c-1.403-1.402-1.403-3.686,0-5.088l6.784-6.784l1.131,1.131
	l-6.783,6.784c-0.781,0.779-0.781,2.047-0.001,2.827c0.779,0.781,2.047,0.781,2.827,0l6.786-6.784c1.869-1.871,1.869-4.913,0-6.784
	c-1.871-1.871-4.915-1.871-6.786,0L3.004,13.181c-1.871,1.871-1.871,4.915,0,6.785c1.871,1.869,4.914,1.869,6.785,0l0.002-0.003
	c0.6,0.248,1.24,0.37,1.879,0.383l-0.751,0.751c-2.498,2.497-6.548,2.497-9.046,0c-2.498-2.499-2.498-6.548,0-9.047L12.05,1.874
	c2.499-2.499,6.548-2.499,9.047,0C23.594,4.371,23.594,8.421,21.097,10.919z"/>
</svg>
