<svg xmlns="http://www.w3.org/2000/svg" xmlns:xlink="http://www.w3.org/1999/xlink" style="enable-background:new 0 0 16.75 16.75" xml:space="preserve" height="17" viewBox="0 0 16.75 16.75" width="17" version="1.1" y="79" x="0px"><path fill="#ffffff" d="m15.354 16.75h-13.958c-0.771 0-1.396-0.625-1.396-1.396v-12.388c0-0.771 0.625-1.396 1.396-1.396h2.268v-1.047c0-0.289 0.234-0.523 0.524-0.523 0.289 0 0.523 0.234 0.523 0.523v1.047h3.141v-1.047c0-0.289 0.234-0.523 0.523-0.523s0.523 0.234 0.523 0.523v1.047h3.141v-1.047c0-0.289 0.235-0.523 0.524-0.523s0.523 0.234 0.523 0.523v1.047h2.268c0.771 0 1.396 0.624 1.396 1.395v12.388c0 0.772-0.625 1.397-1.396 1.397zm0.349-13.784c0-0.192-0.156-0.349-0.349-0.349h-2.268v1.047c0 0.289-0.235 0.523-0.523 0.523-0.289 0-0.523-0.234-0.523-0.523v-1.047h-3.142v1.047c0 0.289-0.235 0.523-0.523 0.523-0.289 0-0.524-0.234-0.524-0.523v-1.047h-3.14v1.047c0 0.289-0.234 0.523-0.523 0.523s-0.523-0.234-0.523-0.523v-1.047h-2.269c-0.192 0-0.349 0.156-0.349 0.349v12.388c0 0.193 0.157 0.349 0.349 0.349h13.958c0.193 0 0.349-0.156 0.349-0.349v-12.388zm-4.711 8.55h2.094v1.57h-2.094v-1.57zm0-2.618h2.094v1.57h-2.094v-1.57zm0-2.617h2.094v1.57h-2.094v-1.57zm-3.664 5.235h2.094v1.57h-2.094v-1.57zm0-2.618h2.094v1.57h-2.094v-1.57zm0-2.617h2.094v1.57h-2.094v-1.57zm-3.664 5.235h2.094v1.57h-2.094v-1.57zm0-2.618h2.094v1.57h-2.094v-1.57zm0-2.617h2.094v1.57h-2.094v-1.57z"/></svg>
