<svg xmlns="http://www.w3.org/2000/svg" xmlns:xlink="http://www.w3.org/1999/xlink" style="enable-background:new 0 0 21.356 21.491" xml:space="preserve" height="21" width="21" version="1.1" y="113" x="0px" viewBox="0 0 21.356 21.491"><path fill="#0e334f" d="m20.923 18.956l-4.514-4.542c1.098-1.536 1.7-3.371 1.7-5.302 0-2.433-0.941-4.721-2.652-6.442-1.709-1.721-3.984-2.67-6.403-2.67-2.418 0-4.693 0.947-6.403 2.669-1.709 1.72-2.651 4.009-2.651 6.442 0 2.434 0.941 4.722 2.651 6.444 1.71 1.72 3.983 2.668 6.403 2.668 1.919 0 3.741-0.604 5.267-1.709l4.514 4.542c0.29 0.291 0.666 0.435 1.044 0.435s0.756-0.144 1.044-0.435c0.577-0.58 0.577-1.521 0-2.1zm-16.183-5.502c-1.153-1.161-1.787-2.704-1.787-4.343s0.634-3.181 1.787-4.342c1.152-1.16 2.684-1.799 4.314-1.799s3.163 0.639 4.315 1.799c1.152 1.16 1.786 2.702 1.786 4.342 0 1.639-0.634 3.182-1.786 4.343-1.153 1.159-2.685 1.797-4.315 1.797-1.631-0.001-3.163-0.638-4.314-1.797z"/></svg>
