<svg xmlns="http://www.w3.org/2000/svg" xmlns:xlink="http://www.w3.org/1999/xlink" style="enable-background:new 0 0 26.671 24.274" xml:space="preserve" height="24" width="27" version="1.1" y="183" x="0px" viewBox="0 0 26.671 24.274"><path fill="#FFFFFF" d="m20.406 5.722c0 0.807-0.588 1.298-1.018 1.659-0.163 0.136-0.465 0.385-0.465 0.478 0.003 0.365-0.291 0.656-0.656 0.656h-0.005c-0.363 0-0.658-0.282-0.661-0.645-0.006-0.715 0.517-1.144 0.937-1.496 0.33-0.276 0.545-0.471 0.545-0.649 0-0.36-0.293-0.654-0.654-0.654s-0.654 0.293-0.654 0.654c0 0.365-0.296 0.661-0.661 0.661s-0.661-0.296-0.661-0.661c0-1.089 0.887-1.975 1.977-1.975 1.089 0 1.976 0.883 1.976 1.972zm-2.126 3.404c-0.365 0-0.647 0.296-0.647 0.661v0.005c0 0.365 0.282 0.658 0.647 0.658s0.661-0.298 0.661-0.663-0.296-0.661-0.661-0.661zm-13.329 4.602c-0.365 0-0.661 0.296-0.661 0.661s0.296 0.661 0.661 0.661h0.055c0.365 0 0.661-0.296 0.661-0.661s-0.296-0.661-0.661-0.661h-0.055zm2.299 0c-0.365 0-0.661 0.296-0.661 0.661s0.296 0.661 0.661 0.661h0.055c0.365 0 0.661-0.296 0.661-0.661s-0.296-0.661-0.661-0.661h-0.055zm19.421-10.553v7.437c0 1.761-1.413 3.189-3.175 3.189h-8.576c-0.168 0-0.306-0.001-0.421-0.003-0.121-0.002-0.257-0.003-0.31 0.003-0.055 0.037-0.191 0.161-0.322 0.281-0.052 0.048-0.11 0.1-0.174 0.158l-2.426 2.21c-0.194 0.176-0.48 0.222-0.719 0.116-0.24-0.106-0.408-0.343-0.408-0.604v-7.006h-6.928c-1.033 0-1.89 0.846-1.89 1.878v7.437c0 1.032 0.857 1.844 1.89 1.844h9.579c0.165 0 0.319 0.076 0.441 0.187l1.977 1.821v-6.28c0-0.365 0.296-0.661 0.661-0.661s0.661 0.296 0.661 0.661v7.777c0 0.262-0.15 0.495-0.389 0.601-0.086 0.038-0.172 0.053-0.262 0.053-0.162 0-0.322-0.066-0.446-0.18l-2.899-2.658h-9.323c-1.762 0-3.212-1.404-3.212-3.165v-7.437c0-1.761 1.45-3.2 3.212-3.2h6.927v-4.46c0-1.76 1.461-3.174 3.224-3.174h10.133c1.762 0 3.175 1.414 3.175 3.175zm-1.323 0c0-1.032-0.82-1.854-1.853-1.854h-10.132c-1.033 0-1.901 0.822-1.901 1.854v11.289l1.329-1.2c0.062-0.056 0.131-0.108 0.181-0.154 0.607-0.559 0.762-0.648 1.554-0.632 0.108 0.002 0.237 0.003 0.393 0.003h8.576c1.033 0 1.853-0.836 1.853-1.868v-7.438z"/></svg>
