<?xml version="1.0" encoding="utf-8"?>
<!-- Generator: Adobe Illustrator 17.0.0, SVG Export Plug-In . SVG Version: 6.00 Build 0)  -->
<svg version="1.1" id="Слой_1" xmlns="http://www.w3.org/2000/svg" xmlns:xlink="http://www.w3.org/1999/xlink" x="0px" y="0px"
	 width="26.889px" height="26.349px" viewBox="0 0 26.889 26.349" style="enable-background:new 0 0 26.889 26.349;"
	 xml:space="preserve" fill="#b1b1b1">
<path d="M14.915,26.349h-2.826c-0.425,0-0.574,0.001-2.023-3.589l-1.119-0.455c-3.049,1.383-3.41,1.383-3.531,1.383H5.183
	l-0.199-0.171l-2.004-1.96c-0.305-0.304-0.41-0.41,1.157-3.953l-0.456-1.08C0,15.205,0,15.052,0,14.617v-2.771
	c0-0.434,0-0.571,3.669-1.99l0.456-1.082C2.467,5.285,2.581,5.176,2.908,4.868l2.155-2.112L5.33,2.748
	c0.326,0,1.532,0.44,3.59,1.309l1.116-0.453C11.38,0,11.545,0,11.969,0h2.826c0.424,0,0.572,0,2.022,3.591l1.12,0.452
	c3.045-1.382,3.411-1.382,3.533-1.382h0.232l0.199,0.168l2.003,1.957c0.304,0.307,0.409,0.413-1.159,3.957l0.458,1.086
	c3.686,1.313,3.686,1.466,3.686,1.901v2.768c0,0.424,0,0.573-3.674,1.993l-0.453,1.083c1.649,3.474,1.541,3.583,1.232,3.894
	l-2.171,2.126l-0.27,0.008c-0.324,0-1.528-0.441-3.583-1.311l-1.122,0.454C15.501,26.349,15.348,26.349,14.915,26.349z
	 M12.383,25.205h2.229c0.256-0.521,0.809-1.904,1.252-3.095l0.089-0.237l2.03-0.82l0.218,0.093c1.21,0.516,2.64,1.087,3.197,1.263
	l1.567-1.532c-0.199-0.552-0.802-1.901-1.346-3.039l-0.11-0.231l0.84-2.005l0.229-0.088c1.222-0.47,2.638-1.051,3.167-1.316v-2.153
	c-0.535-0.252-1.946-0.788-3.161-1.219l-0.238-0.085l-0.845-2.007L21.6,8.507c0.52-1.174,1.099-2.558,1.284-3.116l-1.571-1.536
	c-0.507,0.177-1.926,0.785-3.124,1.332L17.966,5.29l-2.03-0.818l-0.091-0.226c-0.48-1.197-1.076-2.586-1.345-3.1h-2.228
	c-0.257,0.52-0.808,1.903-1.25,3.093l-0.088,0.236L8.911,5.298L8.693,5.204C7.48,4.689,6.048,4.118,5.489,3.943L3.925,5.476
	c0.196,0.551,0.801,1.899,1.343,3.038L5.38,8.745l-0.844,2.004l-0.227,0.088c-1.22,0.47-2.634,1.05-3.163,1.314v2.156
	c0.535,0.252,1.944,0.79,3.158,1.223l0.236,0.086l0.845,2l-0.101,0.226c-0.52,1.173-1.098,2.555-1.284,3.112l1.574,1.54
	c0.506-0.178,1.923-0.787,3.122-1.333l0.224-0.103l2.026,0.823l0.09,0.226C11.519,23.304,12.114,24.69,12.383,25.205z
	 M13.444,17.786c-2.592,0-4.702-2.069-4.702-4.611c0-2.541,2.11-4.608,4.702-4.608c2.591,0,4.696,2.068,4.696,4.608
	C18.14,15.717,16.035,17.786,13.444,17.786z M13.444,9.711c-1.962,0-3.556,1.554-3.556,3.464c0,1.911,1.594,3.466,3.556,3.466
	c1.958,0,3.552-1.555,3.552-3.466C16.996,11.265,15.403,9.711,13.444,9.711z"/>
</svg>
