<svg xmlns="http://www.w3.org/2000/svg" xmlns:xlink="http://www.w3.org/1999/xlink" id="icn_auth" style="enable-background:new 0 0 27.004 27.004" xml:space="preserve" height="27" viewBox="0 0 27.004 27.004" width="27" version="1.1" y="52" x="0px"><path fill="#ffffff" d="m25.095 19.412c-0.797-0.797-2.131-1.493-4.233-2.544-1.06-0.53-2.824-1.411-3.252-1.815 1.791-2.201 2.83-4.688 2.83-6.864 0-1.477 0-3.315-0.827-4.954-0.745-1.476-2.41-3.235-6.111-3.235s-5.367 1.759-6.111 3.234c-0.827 1.64-0.827 3.477-0.827 4.954 0 2.177 1.038 4.663 2.83 6.864-0.429 0.405-2.192 1.286-3.252 1.815-2.102 1.051-3.436 1.747-4.233 2.544-1.766 1.767-1.9 4.732-1.909 5.308-0.009 0.602 0.223 1.183 0.647 1.614 0.422 0.428 1 0.671 1.602 0.671h22.504c0.603 0 1.18-0.242 1.603-0.671 0.423-0.431 0.656-1.012 0.647-1.614-0.009-0.576-0.143-3.541-1.908-5.307zm0.06 5.736c-0.107 0.108-0.25 0.168-0.401 0.168h-22.504c-0.149 0-0.295-0.061-0.4-0.168-0.105-0.106-0.164-0.253-0.163-0.403 0.005-0.283 0.082-2.807 1.415-4.139 0.615-0.615 1.902-1.281 3.795-2.228 2.02-1.009 3.14-1.611 3.656-2.099l1.139-1.077-0.989-1.215c-1.558-1.913-2.452-4.027-2.452-5.798 0-1.366 0-2.913 0.646-4.193 0.774-1.531 2.322-2.307 4.605-2.307 2.281 0 3.831 0.776 4.604 2.307 0.646 1.281 0.646 2.828 0.646 4.194 0 1.77-0.893 3.884-2.453 5.798l-0.989 1.215 1.139 1.077c0.516 0.487 1.635 1.088 3.656 2.099 1.892 0.946 3.18 1.613 3.795 2.229 1.084 1.084 1.4 3.112 1.414 4.139 0.004 0.148-0.055 0.295-0.159 0.401z"/></svg>
