<svg version="1.1" xmlns="http://www.w3.org/2000/svg" viewBox="0 0 26 32" xmlns:xlink="http://www.w3.org/1999/xlink" enable-background="new 0 0 26 32"><path fill="#25366D" d="m 11.976748,3.9999363 a 1.0000912,1.0000912 0 0 0 -0.648533,0.25993 L 0.3284651,14.259686 a 1.0000912,1.0000912 0 0 0 0.53122907,1.730628 l 2.64787713,0.378269 -3.18013974,2.891271 a 1.0000912,1.0000912 0 0 0 0.53122908,1.730111 L 3.508088,21.36875 0.32743156,24.260017 a 1.0000912,1.0000912 0 0 0 0.53122908,1.73012 l 14.00005736,1.99986 a 1.0000912,1.0000912 0 0 0 0.881592,-0.31729 l 9.999819,-10.999753 a 1.0000912,1.0000912 0 0 0 -0.66352,-1.669651 l -2.209665,-0.170014 2.873185,-3.160503 a 1.0000912,1.0000912 0 0 0 -0.66352,-1.66965 L 22.866427,9.8331205 25.740129,6.6721015 A 1.0000912,1.0000912 0 0 0 25.076092,5.0040003 l -12.999609,-0.99993 a 1.0000912,1.0000912 0 0 0 -0.09973,-0.0041 z m 0.377235,2.0293152 10.533115,0.810797 -2.854581,3.139316 a 1.0000912,1.0000912 0 0 0 -0.02067,0.02119 L 14.616875,15.935024 5.894486,14.689116 A 1.0000912,1.0000912 0 0 0 5.888286,14.6886 L 3.244543,14.310848 Z m 8.809204,5.6786745 1.721844,0.132291 -2.866467,3.153268 a 1.0000912,1.0000912 0 0 0 -0.0067,0.0072 l -5.394972,5.93447 -8.7218723,-1.246425 a 1.0000912,1.0000912 0 0 0 -0.00568,-5.17e-4 l -2.643743,-0.377751 2.8318437,-2.575014 4.6534226,0.66507 4.127878,0.589623 h 10e-4 a 1.0000912,1.0000912 0 0 0 0.09922,0.0093 1.0000912,1.0000912 0 0 0 0.341061,-0.04651 1.0000912,1.0000912 0 0 0 0.05064,-0.01602 1.0000912,1.0000912 0 0 0 10e-4,-5.17e-4 1.0000912,1.0000912 0 0 0 0.09095,-0.03927 1.0000912,1.0000912 0 0 0 5.17e-4,-5.17e-4 1.0000912,1.0000912 0 0 0 0.297137,-0.223757 z m 0,5.000168 1.721327,0.13229 -8.26764,9.094453 -11.3712998,-1.62417 2.8318437,-2.575017 8.7813001,1.254697 a 1.0000912,1.0000912 0 0 0 0.881592,-0.31729 z"></path></svg>
