<svg xmlns="http://www.w3.org/2000/svg" xmlns:xlink="http://www.w3.org/1999/xlink" style="enable-background:new 0 0 19.559 28.812" xml:space="preserve" height="33" viewBox="-2 -2 23.559 32.812" width="24" version="1.1" y="58" x="0px"><style type="text/css"> .st0{fill-rule:evenodd;clip-rule:evenodd;fill:#ABABAB;}</style><path class="st0" d="m15.544 20.148c-1.884 3.375-3.731 6.179-3.808 6.297l-1.345 2.038c-0.136 0.205-0.365 0.329-0.612 0.329-0.246 0-0.476-0.124-0.612-0.329l-1.345-2.038c-0.079-0.119-1.939-2.948-3.808-6.297-2.738-4.908-4.014-8.203-4.014-10.37 0-5.392 4.387-9.778 9.78-9.778s9.78 4.386 9.78 9.778c-0.001 2.167-1.277 5.462-4.016 10.37zm-5.764-18.683c-4.584 0-8.314 3.729-8.314 8.313 0 1.854 1.288 5.103 3.829 9.656 1.843 3.302 3.675 6.087 3.752 6.204l0.733 1.111 0.733-1.111c0.077-0.116 1.895-2.876 3.752-6.204 2.541-4.553 3.829-7.801 3.829-9.656 0-4.584-3.73-8.313-8.314-8.313zm0 13.674c-2.99 0-5.422-2.432-5.422-5.422s2.432-5.422 5.422-5.422 5.422 2.432 5.422 5.422-2.432 5.422-5.422 5.422zm0-9.378c-2.182 0-3.957 1.775-3.957 3.957s1.775 3.956 3.957 3.956 3.957-1.775 3.957-3.956-1.775-3.957-3.957-3.957z"/></svg>
