<svg xmlns="http://www.w3.org/2000/svg" xmlns:xlink="http://www.w3.org/1999/xlink" height="18" width="12" preserveAspectRatio="xMidYMid" viewBox="0 0 11.688 17.657" y="281">
   <path d="m5.839 0.013c-3.22 0-5.839 2.619-5.839 5.838 0 1.296 0.828 3.41 2.531 6.461 1.205 2.159 2.39 3.959 2.44 4.034l0.868 1.315 0.868-1.315c0.049-0.075 1.234-1.875 2.439-4.034 1.703-3.051 2.531-5.165 2.531-6.461 0-3.219-2.619-5.838-5.838-5.838zm0 8.824c-1.672 0-3.027-1.354-3.027-3.025 0-1.672 1.355-3.026 3.027-3.026 1.671 0 3.026 1.354 3.026 3.026 0 1.671-1.355 3.025-3.026 3.025z" fill="#e84824"/>
</svg>
