<svg version="1.1" id="svg_sprite" xmlns="http://www.w3.org/2000/svg" xmlns:xlink="http://www.w3.org/1999/xlink">
    <symbol id="icn_photo_camera" viewBox="0 0 86 86" style="enable-background:new 0 0 86 86;" xml:space="preserve">
        <path d="M43.016,28.562c-10.369,0-18.805,8.437-18.805,18.806s8.436,18.806,18.805,18.806c10.37,0,18.807-8.437,18.807-18.806
        S53.386,28.562,43.016,28.562z M43.016,62.173c-8.164,0-14.805-6.642-14.805-14.806s6.641-14.806,14.805-14.806
        s14.807,6.642,14.807,14.806S51.18,62.173,43.016,62.173z"/>
        <path d="M43.152,35.314c-6.721,0-12.189,5.468-12.189,12.188c0,1.104,0.896,2,2,2s2-0.896,2-2c0-4.515,3.674-8.188,8.189-8.188
            c1.104,0,2-0.896,2-2S44.257,35.314,43.152,35.314z"/>
        <path d="M76,18h-2v-2.542C74,12.227,71.483,10,68.016,10h-9C55.586,10,53,12.278,53,15.458V18H10c-5.514,0-10,4.367-10,9.881v38
            C0,71.395,4.486,76,10,76h66c5.514,0,10-4.605,10-10.119v-38C86,22.367,81.514,18,76,18z M57,15.458
            C57,13.925,58.809,14,59.016,14h9C68.348,14,70,13.957,70,15.458V18H57V15.458z M82,66c0,3.313-2.687,6-6,6H10
            c-3.313,0-6-2.687-6-6V28c0-3.313,2.687-6,6-6h66c3.313,0,6,2.687,6,6V66z"/>
    </symbol>
    <symbol id="icn_curved_arrows" viewBox="0 0 462.088 462.088" style="enable-background:new 0 0 462.088 462.088;" xml:space="preserve">
        <path d="M417.041,202.182c-7.483,0-13.896-5.345-16.034-12.827     c-18.172-80.171-88.723-136.826-172.101-136.826S74.977,109.184,56.805,189.355c-2.138,8.552-10.689,13.896-19.241,11.758     s-13.896-10.689-11.758-19.241c21.379-95.137,105.826-161.411,203.1-161.411s181.721,66.275,203.1,161.411     c2.138,8.552-3.207,17.103-11.758,19.241C419.179,201.113,418.11,202.182,417.041,202.182z"/>
        <path d="M422.386,206.458c-2.138,0-4.276,0-6.414-1.069l-55.585-23.517    c-8.552-3.207-11.758-12.827-8.552-21.379s12.827-11.758,21.379-8.552l40.62,17.103l17.103-40.62    c3.207-8.552,12.827-11.758,21.379-8.552s11.758,12.827,8.552,21.379l-23.517,55.585c-2.138,4.276-4.276,7.483-8.552,8.552    C426.662,206.458,424.524,206.458,422.386,206.458z"/>
        <path d="M232.113,441.627c-97.274,0-181.721-66.275-203.1-161.411     c-2.138-8.552,3.207-17.103,11.758-19.241s17.103,3.207,19.241,11.758c18.172,80.171,88.723,136.826,172.101,136.826     s153.929-56.654,172.101-136.826c2.138-8.552,10.689-13.896,19.241-11.758s13.896,10.69,11.758,19.241     C413.834,375.352,330.456,441.627,232.113,441.627z"/>
        <path d="M16.185,343.284c-2.138,0-4.276,0-6.414-1.069c-8.552-3.207-11.758-12.827-8.552-21.379    l23.517-55.585c3.207-8.552,12.827-11.758,21.379-8.552l55.585,23.517c8.552,3.207,11.758,12.827,8.552,21.379    c-3.207,8.552-12.827,11.758-21.379,8.552l-40.62-17.103L31.15,332.594C29.013,339.008,22.599,343.284,16.185,343.284z"/>
    </symbol>
    <symbol id="icn_close_cross" viewBox="0 0 26.033 26.033" style="enable-background:new 0 0 26.033 26.033;" xml:space="preserve">
        <path d="m26.033 24.334l-1.699 1.699-11.318-11.317-11.317 11.317-1.699-1.699 11.317-11.317-11.317-11.318 1.699-1.699 11.317 11.318 11.318-11.318 1.699 1.699-11.318 11.318 11.318 11.317z"/>
    </symbol>
</svg>