<svg xmlns="http://www.w3.org/2000/svg" xmlns:xlink="http://www.w3.org/1999/xlink" height="23" width="17" preserveAspectRatio="xMidYMid" viewBox="0 0 17.18 22.91" y="338">
   <path d="m8.59 17.165c-4.745 0-8.593-3.841-8.593-8.579 0-4.737 3.848-8.578 8.593-8.578 4.746 0 8.593 3.841 8.593 8.578 0 4.738-3.847 8.579-8.593 8.579zm0-13.615c-2.782 0-5.045 2.259-5.045 5.036 0 2.778 2.263 5.037 5.045 5.037s5.045-2.259 5.045-5.037c0-2.777-2.263-5.036-5.045-5.036zm0 7.761c-1.504 0-2.728-1.222-2.728-2.725 0-1.501 1.224-2.723 2.728-2.723s2.728 1.222 2.728 2.723c0 1.503-1.224 2.725-2.728 2.725zm0 7.396c2.587 0 5.026-0.961 6.908-2.714 0.528 1.184 0.826 2.464 0.826 3.713 0 4.265-15.467 4.265-15.467 0 0-1.249 0.298-2.529 0.825-3.713 1.882 1.753 4.321 2.714 6.908 2.714z" fill="#ffffff"/>
</svg>
