<svg xmlns="http://www.w3.org/2000/svg" xmlns:xlink="http://www.w3.org/1999/xlink" height="39" width="40" preserveAspectRatio="xMidYMid" viewBox="0 0 40.438 39.03" y="299">
   <path d="m40.451 34.28l-1.757 2.227-4.83-3.81c-3.568 3.882-8.686 6.32-14.364 6.32-10.758 0-19.51-8.749-19.51-19.504 0-10.754 8.752-19.503 19.509-19.503 10.758 0 19.51 8.749 19.51 19.503 0 4.061-1.249 7.835-3.381 10.961l4.823 3.806zm-4.279-14.767c0-9.189-7.479-16.666-16.672-16.666-9.194 0-16.673 7.477-16.673 16.666 0 9.191 7.479 16.667 16.673 16.667 9.193 0 16.672-7.476 16.672-16.667zm-15.321 6.703h-2.27v-5.568h-5.57v-2.269h5.57v-5.569h2.27v5.569h5.57v2.269h-5.57v5.568z" fill="#fff"/>
</svg>
