<?xml version="1.0" standalone="no"?>
<!DOCTYPE svg PUBLIC "-//W3C//DTD SVG 20010904//EN"
 "http://www.w3.org/TR/2001/REC-SVG-20010904/DTD/svg10.dtd">
<svg version="1.0" xmlns="http://www.w3.org/2000/svg"
 width="92.000000pt" height="92.000000pt" viewBox="0 0 92.000000 92.000000"
 preserveAspectRatio="xMidYMid meet">
<metadata>
Created by potrace 1.11, written by Peter Selinger 2001-2013
</metadata>
<g transform="translate(0.000000,92.000000) scale(0.100000,-0.100000)"
fill="#000000" stroke="none">
<path d="M410 830 c-1 -36 -2 -71 -1 -78 1 -6 -10 -17 -25 -22 l-26 -10 25
-24 c26 -24 27 -54 5 -83 -7 -8 -4 -28 7 -57 27 -69 12 -142 -41 -206 -30 -35
-25 -37 28 -15 12 5 20 2 24 -10 10 -25 -13 -35 -78 -35 l-57 0 -17 55 c-17
53 -19 55 -54 55 -25 0 -37 4 -37 15 0 46 84 7 112 -52 11 -24 22 -43 25 -43
3 0 16 16 29 35 58 85 27 208 -71 286 -27 21 -54 39 -58 39 -11 0 -40 29 -40
40 0 5 20 16 45 26 35 13 49 14 57 6 14 -14 55 -14 83 -1 15 7 11 8 -17 5 -35
-4 -38 -3 -38 20 0 13 -6 25 -12 26 -7 0 -20 2 -28 3 -8 0 -32 -4 -52 -11 -28
-10 -38 -10 -42 -1 -2 7 -5 -11 -5 -40 l-1 -52 -41 14 c-62 22 -62 19 -8 -35
l50 -50 -3 -82 -3 -82 -45 -1 c-62 -2 -80 4 -80 26 0 20 39 35 65 25 8 -3 22
-3 30 0 14 6 13 8 -2 20 -17 12 -17 13 1 27 17 13 15 14 -29 20 -79 11 -75 14
-75 -64 0 -56 4 -75 18 -86 15 -13 15 -14 0 -9 -15 4 -15 1 -1 -47 25 -87 30
-91 123 -103 34 -5 230 -5 255 0 11 2 56 7 100 11 44 4 83 9 87 12 5 2 8 -1 8
-6 0 -6 -8 -11 -17 -12 -10 0 -27 -2 -38 -4 -102 -20 -328 -26 -422 -12 l-53
8 10 -26 c6 -15 10 -37 10 -50 0 -23 2 -24 28 -14 60 23 136 21 246 -5 148
-36 157 -35 211 20 25 25 45 49 45 54 0 6 15 16 34 24 19 8 44 28 57 45 12 16
26 28 31 25 4 -3 8 1 8 9 0 20 -25 28 -40 14 -10 -9 -11 -7 -6 9 5 15 1 24
-11 29 -16 6 -14 8 10 21 15 8 31 13 36 10 4 -3 9 20 10 52 1 31 4 58 7 61 2
2 -1 10 -7 18 -9 9 -8 13 0 13 6 0 11 -5 11 -11 0 -7 12 -9 35 -5 20 4 35 3
35 -3 0 -10 60 -4 73 8 4 4 -5 6 -21 3 -23 -3 -30 0 -35 18 -5 18 -10 20 -39
15 -18 -4 -42 -7 -53 -7 -18 0 -20 -7 -20 -71 0 -39 -4 -72 -10 -74 -6 -2 -10
23 -11 60 0 75 -23 124 -86 183 -49 47 -105 79 -165 94 -49 12 -53 23 -18 46
20 13 31 14 48 7 26 -12 67 -7 82 9 7 7 2 9 -19 4 -20 -5 -34 -2 -47 10 -13
12 -29 15 -53 11 -22 -3 -37 -1 -40 6 -2 7 -5 -17 -6 -53z m-229 -73 c-1 -12
-15 -9 -19 4 -3 6 1 10 8 8 6 -3 11 -8 11 -12z m332 -75 c16 -20 36 -51 43
-69 17 -39 18 -116 3 -145 -10 -19 -9 -20 7 -13 51 22 145 11 129 -15 -13 -20
-134 -79 -178 -85 -46 -7 -77 -26 -77 -46 0 -5 -4 -9 -10 -9 -5 0 -10 14 -10
30 0 17 5 30 12 30 23 0 86 52 98 81 21 51 7 109 -36 145 -23 20 -33 34 -25
38 28 18 -1 106 -35 106 -8 0 -14 9 -14 21 0 20 1 20 32 -6 17 -15 45 -43 61
-63z m-317 -158 c6 -31 -8 -74 -24 -74 -4 0 -8 32 -8 71 0 60 2 68 13 53 7
-10 15 -32 19 -50z m-156 36 c0 -5 -4 -10 -10 -10 -5 0 -10 5 -10 10 0 6 5 10
10 10 6 0 10 -4 10 -10z m0 -24 c0 -3 -4 -8 -10 -11 -5 -3 -10 -1 -10 4 0 6 5
11 10 11 6 0 10 -2 10 -4z m60 -120 c-13 -13 -35 7 -25 24 5 8 11 8 21 -1 10
-8 12 -15 4 -23z m50 8 c0 -8 -5 -12 -10 -9 -6 4 -8 11 -5 16 9 14 15 11 15
-7z m517 -44 c-6 -17 -17 -28 -24 -26 -16 7 -36 -20 -27 -36 5 -10 4 -11 -7 0
-16 15 -33 16 -23 0 4 -7 3 -8 -4 -4 -23 14 -12 33 36 64 60 38 63 39 49 2z
m-487 -15 c7 -9 8 -15 2 -15 -5 0 -12 7 -16 15 -3 8 -4 15 -2 15 2 0 9 -7 16
-15z m53 -6 c4 -16 3 -18 -9 -8 -7 6 -11 15 -8 20 8 13 11 11 17 -12z m-18
-19 c3 -5 1 -10 -4 -10 -6 0 -11 5 -11 10 0 6 2 10 4 10 3 0 8 -4 11 -10z
m494 -3 c-2 -1 -13 -9 -24 -17 -19 -14 -19 -14 -6 3 7 9 18 17 24 17 6 0 8 -1
6 -3z m-139 -92 c0 -8 -4 -15 -10 -15 -5 0 -10 7 -10 15 0 8 5 15 10 15 6 0
10 -7 10 -15z m-70 -10 c0 -8 -4 -15 -10 -15 -5 0 -10 7 -10 15 0 8 5 15 10
15 6 0 10 -7 10 -15z m-70 -3 c0 -13 -12 -22 -22 -16 -10 6 -1 24 13 24 5 0 9
-4 9 -8z"/>
<path d="M611 360 c-13 -11 -19 -20 -13 -20 5 0 15 7 22 15 7 8 17 12 23 8 6
-3 7 -1 3 5 -9 15 -6 15 -35 -8z"/>
<path d="M764 495 c1 -61 8 -67 31 -31 22 34 16 80 -11 84 -18 3 -20 -2 -20
-53z"/>
<path d="M659 173 c-23 -26 -91 -53 -139 -53 -25 0 -86 11 -135 25 -95 26
-158 32 -215 20 -48 -10 -147 -63 -155 -83 -5 -14 -4 -14 12 0 26 22 109 47
173 51 38 2 82 -4 140 -21 106 -31 172 -37 221 -23 41 12 93 52 110 82 12 23
6 25 -12 2z"/>
<path d="M102 91 c-30 -10 -61 -26 -69 -34 -14 -14 -12 -14 25 -2 76 27 167
24 271 -7 106 -31 146 -34 195 -14 51 21 51 34 1 26 -33 -5 -72 0 -147 20
-128 33 -206 36 -276 11z"/>
</g>
</svg>
